<?xml version="1.0" encoding="utf-8"?>
<!-- Generator: Adobe Illustrator 16.0.0, SVG Export Plug-In . SVG Version: 6.00 Build 0)  -->
<!DOCTYPE svg PUBLIC "-//W3C//DTD SVG 1.1//EN" "http://www.w3.org/Graphics/SVG/1.1/DTD/svg11.dtd">
<svg version="1.1" id="Capa_1" xmlns="http://www.w3.org/2000/svg" xmlns:xlink="http://www.w3.org/1999/xlink" x="0px" y="0px"
	 width="612px" height="792px" viewBox="0 0 612 792" enable-background="new 0 0 612 792" xml:space="preserve">
<g>
	<path fill="#005A7F" d="M352.004,612.18h-13.059v-49.611c0-7.268-5.892-13.158-13.158-13.158h-40.563
		c-7.267,0-13.158,5.891-13.158,13.158v49.611h-13.059c-5.022,0-9.606,2.858-11.816,7.368s-1.66,9.882,1.417,13.853l46.497,59.974
		c2.492,3.215,6.33,5.097,10.399,5.097c4.066,0,7.907-1.882,10.398-5.097l46.497-59.974c3.076-3.969,3.626-9.343,1.417-13.853
		C361.61,615.04,357.026,612.18,352.004,612.18z"/>
	<path fill="#005A7F" d="M594.4,96.546c-15.401-7.347-33.835-0.813-41.176,14.583c-16.041,33.633-35.826,65.043-59.041,93.833
		c-30.979,0.043-71.82,16.976-115.941,36.048c-1.993,0.879-3.409,2.725-3.68,4.792c-0.268,2.063,0.676,3.995,2.461,4.956
		c17.038,9.174,34.757,17.551,53.095,25.065c-29.282-0.365-57.464-3.649-84.1-9.475c-10.43-2.261-21.431-0.97-31.296,3.585
		c-6.317,2.922-12.717,5.892-19.198,8.896c-40.315,18.841-89.9,50.839-144.72,73.105C97.221,375.161,38.404,388.653,8.181,392.674
		c-4.141,0.645-7.215,2.926-7.994,6.05c-0.778,3.117,0.896,6.605,4.444,9.054c15.874,10.976,42.848,27.851,78.599,42.519
		c11.451,4.718,24.933,6.317,37.64,4.4c41.398-6.2,80.819-17.104,117.672-31.885c-21.704,15.955-45.354,30.581-70.847,43.479
		c-2.421,1.225-3.727,3.214-3.336,5.162c0.39,1.945,2.42,3.509,5.249,4.013c69.187,13.105,149.918,5.933,207.173-21.313
		c73.854-33.443,125.401-89.362,149.19-136.868c14.532-28.614,19.25-54.251,16.324-73.577
		c26.221-32.523,48.567-68.001,66.685-105.987C616.328,122.323,609.799,103.889,594.4,96.546z"/>
</g>
</svg>
