<?xml version="1.0" encoding="utf-8"?>
<!-- Generator: Adobe Illustrator 16.0.0, SVG Export Plug-In . SVG Version: 6.00 Build 0)  -->
<!DOCTYPE svg PUBLIC "-//W3C//DTD SVG 1.1//EN" "http://www.w3.org/Graphics/SVG/1.1/DTD/svg11.dtd">
<svg version="1.1" id="Layer_1" xmlns="http://www.w3.org/2000/svg" xmlns:xlink="http://www.w3.org/1999/xlink" x="0px" y="0px"
	 width="612px" height="792px" viewBox="0 0 612 792" enable-background="new 0 0 612 792" xml:space="preserve">
<g>
	<path fill="#005A7F" d="M306,382.121c-33.68,0-61.08,27.401-61.08,61.082s27.4,61.081,61.08,61.081s61.08-27.4,61.08-61.081
		S339.68,382.121,306,382.121z M306,484.752c-22.911,0-41.548-18.639-41.548-41.55s18.637-41.55,41.548-41.55
		s41.548,18.639,41.548,41.55S328.911,484.752,306,484.752z"/>
	<path fill="#005A7F" d="M457.776,407.779h-45.083c-1.701-5.113-3.778-10.111-6.216-14.957l31.881-31.882
		c3.371-3.372,3.815-8.686,1.05-12.57c-10.647-14.952-23.626-27.932-38.574-38.575c-3.884-2.765-9.197-2.323-12.57,1.049
		l-31.882,31.881c-4.845-2.438-9.843-4.516-14.956-6.216v-45.083c0-4.77-3.445-8.842-8.15-9.631
		c-9.104-1.528-18.281-2.303-27.272-2.303c-8.994,0-18.17,0.775-27.274,2.305c-4.704,0.791-8.149,4.862-8.149,9.63v45.083
		c-5.115,1.702-10.114,3.779-14.956,6.216l-31.881-31.881c-3.374-3.374-8.689-3.814-12.571-1.049
		c-14.949,10.645-27.927,23.625-38.574,38.575c-2.766,3.884-2.322,9.198,1.049,12.57l31.881,31.882
		c-2.438,4.845-4.516,9.843-6.216,14.957h-45.087c-4.77,0-8.841,3.445-9.631,8.148c-1.528,9.108-2.305,18.284-2.305,27.274
		s0.776,18.166,2.305,27.274c0.79,4.703,4.861,8.148,9.631,8.148h45.082c1.702,5.113,3.779,10.111,6.218,14.956l-31.883,31.882
		c-3.371,3.371-3.815,8.686-1.049,12.569c10.647,14.952,23.626,27.932,38.574,38.575c3.886,2.768,9.197,2.323,12.571-1.049
		l31.881-31.882c4.845,2.438,9.843,4.516,14.956,6.217v45.082c0,4.77,3.445,8.842,8.15,9.631c9.107,1.528,18.284,2.305,27.273,2.305
		c8.994,0,18.169-0.775,27.274-2.305c4.703-0.791,8.149-4.862,8.149-9.631v-45.082c5.113-1.702,10.11-3.779,14.954-6.218
		l31.882,31.883c3.372,3.372,8.689,3.814,12.569,1.049c14.951-10.645,27.931-23.624,38.577-38.575
		c2.766-3.885,2.321-9.198-1.05-12.569l-31.881-31.883c2.438-4.845,4.516-9.843,6.216-14.956h45.082
		c4.771,0,8.842-3.445,9.631-8.148c1.528-9.108,2.305-18.285,2.305-27.274c0-8.99-0.776-18.166-2.305-27.274
		C466.617,411.225,462.546,407.779,457.776,407.779L457.776,407.779z M449.282,459.094h-43.886c-4.456,0-8.347,3.016-9.459,7.33
		c-2.146,8.347-5.493,16.396-9.942,23.929c-2.268,3.837-1.65,8.722,1.501,11.872l31.042,31.042
		c-6.649,8.304-14.172,15.824-22.474,22.475L365.022,524.7c-3.153-3.153-8.039-3.771-11.872-1.503
		c-7.533,4.449-15.584,7.796-23.929,9.943c-4.314,1.11-7.332,5.001-7.332,9.457v43.887c-10.66,1.191-21.118,1.19-31.782,0v-43.887
		c0-4.456-3.016-8.347-7.332-9.457c-8.348-2.149-16.399-5.494-23.927-9.943c-3.836-2.266-8.723-1.65-11.874,1.503l-31.042,31.041
		c-8.302-6.648-15.823-14.171-22.474-22.474l31.042-31.041c3.151-3.151,3.77-8.035,1.501-11.873
		c-4.449-7.531-7.794-15.583-9.943-23.928c-1.112-4.315-5.003-7.331-9.459-7.331h-43.885c-0.597-5.332-0.896-10.651-0.896-15.892
		c0-5.239,0.299-10.559,0.896-15.891h43.885c4.456,0,8.347-3.016,9.459-7.331c2.147-8.347,5.494-16.396,9.943-23.928
		c2.267-3.838,1.65-8.722-1.501-11.873l-31.042-31.042c6.649-8.302,14.171-15.825,22.474-22.474l31.042,31.042
		c3.152,3.151,8.037,3.771,11.874,1.503c7.528-4.45,15.579-7.793,23.928-9.943c4.314-1.11,7.331-5.001,7.331-9.457v-43.887
		c10.662-1.191,21.122-1.191,31.782,0v43.888c0,4.456,3.016,8.347,7.332,9.458c8.349,2.148,16.399,5.494,23.927,9.943
		c3.836,2.266,8.724,1.649,11.874-1.502l31.042-31.042c8.302,6.649,15.823,14.171,22.474,22.474l-31.042,31.041
		c-3.151,3.151-3.77,8.036-1.501,11.873c4.449,7.531,7.794,15.581,9.942,23.928c1.112,4.315,5.003,7.331,9.459,7.331h43.886
		c0.597,5.332,0.896,10.651,0.896,15.892C450.178,448.444,449.879,453.761,449.282,459.094L449.282,459.094z"/>
	<path fill="#005A7F" d="M559.915,175.321H345.063c-5.395,0-9.766,4.373-9.766,9.766c0,5.394,4.371,9.766,9.766,9.766h214.852
		c17.95,0,32.553,14.604,32.553,32.553v11.469c-8.925-7.167-20.242-11.469-32.553-11.469H315.766v-42.319
		c0-28.72-23.365-52.085-52.085-52.085H52.085C23.365,133.001,0,156.367,0,185.086v464.145c0,5.394,4.371,9.766,9.766,9.766h592.468
		c5.395,0,9.766-4.372,9.766-9.766V227.406C612,198.686,588.635,175.321,559.915,175.321z M592.468,639.467H19.532v-454.38
		c0-17.95,14.604-32.553,32.553-32.553h211.596c17.95,0,32.553,14.604,32.553,32.553v52.085c0,5.393,4.372,9.766,9.766,9.766
		h253.915c17.95,0,32.553,14.604,32.553,32.553V639.467z"/>
</g>
</svg>
